<svg xmlns="http://www.w3.org/2000/svg" viewBox="0 0 1200 675" role="img" aria-label="Generated diagram of tiny models cooperating">
  <rect width="1200" height="675" fill="#eef4f2"/>
  <circle cx="600" cy="338" r="92" fill="#202124"/>
  <text x="600" y="329" text-anchor="middle" fill="#ffffff" font-family="Arial, sans-serif" font-size="34" font-weight="700">Article</text>
  <text x="600" y="371" text-anchor="middle" fill="#f4d35e" font-family="Arial, sans-serif" font-size="24">DOM</text>
  <g fill="#ffffff" stroke="#1f6f68" stroke-width="5">
    <rect x="95" y="100" width="300" height="130" rx="12"/>
    <rect x="805" y="100" width="300" height="130" rx="12"/>
    <rect x="95" y="445" width="300" height="130" rx="12"/>
    <rect x="805" y="445" width="300" height="130" rx="12"/>
  </g>
  <g font-family="Arial, sans-serif" fill="#202124">
    <text x="245" y="153" text-anchor="middle" font-size="30" font-weight="700">MiniCPM-V-2</text>
    <text x="245" y="194" text-anchor="middle" font-size="22">3B vision</text>
    <text x="955" y="153" text-anchor="middle" font-size="30" font-weight="700">Nemotron</text>
    <text x="955" y="194" text-anchor="middle" font-size="22">4B llama.cpp</text>
    <text x="245" y="498" text-anchor="middle" font-size="30" font-weight="700">Kokoro</text>
    <text x="245" y="539" text-anchor="middle" font-size="22">82M speech</text>
    <text x="955" y="498" text-anchor="middle" font-size="30" font-weight="700">FLUX klein</text>
    <text x="955" y="539" text-anchor="middle" font-size="22">4B images</text>
  </g>
  <g stroke="#c5452c" stroke-width="8" stroke-linecap="round">
    <path d="M405 165 512 270"/>
    <path d="M795 165 688 270"/>
    <path d="M405 510 512 405"/>
    <path d="M795 510 688 405"/>
  </g>
</svg>
